<svg xmlns="http://www.w3.org/2000/svg" viewBox="0 0 32 32" role="img" aria-label="Bitcoin">
  <circle cx="16" cy="16" r="16" fill="#f7931a"/>
  <path fill="#fff" d="M23.64 14.9c.24-1.59-.97-2.45-2.63-3.02l.54-2.16-1.32-.33-.52 2.1c-.35-.08-.7-.17-1.06-.25l.53-2.11-1.31-.33-.54 2.16-.84-.2v-.01l-1.82-.45-.35 1.41s.97.22.95.24c.53.13.63.48.61.76l-.61 2.46.14.04-.14-.03-.86 3.44c-.06.16-.23.41-.6.32.01.02-.96-.24-.96-.24l-.65 1.51 1.71.43.94.24-.54 2.18 1.31.33.54-2.16c.36.1.71.19 1.05.27l-.54 2.15 1.32.33.54-2.18c2.24.42 3.93.25 4.64-1.78.57-1.63-.03-2.57-1.21-3.19.86-.2 1.51-.76 1.68-1.93Zm-3.01 4.22c-.41 1.63-3.16.75-4.05.53l.72-2.9c.9.22 3.75.67 3.33 2.37Zm.41-4.24c-.37 1.49-2.66.73-3.4.55l.65-2.63c.74.19 3.14.53 2.75 2.08Z"/>
</svg>
